# xmcd
#
# Track frame offsets:
#	150
#	22464
#	42499
#	63754
#	88307
#	108162
#	127791
#	141919
#	168453
#	191077
#
# Disc length: 2758 seconds
#
# Revision: 0
# Processed by: cddbd v1.5.1PL0 Copyright (c) Steve Scherf et al.
# Submitted via: dBpowerAMP V4.0
#
DISCID=8e0ac40a
DTITLE=Bill Carson and His Checkered Past - The Copper Look
DYEAR=2004
DGENRE=Bluegrass
TTITLE0=The Straights
TTITLE1=Revolution Is Eternal
TTITLE2=Licorice and Coffee
TTITLE3=Beware
TTITLE4=It's Not Our Time
TTITLE5=Radio Dial
TTITLE6=Oh, Say
TTITLE7=One More Step
TTITLE8=Roses
TTITLE9=Goodnight S. Maria
EXTD=Bill Carson and His Checkered Past is based out of Charleston, SC. Friends of Jump, Little Children and The Borrowed Angels.
EXTT0=
EXTT1=
EXTT2=
EXTT3=
EXTT4=
EXTT5=
EXTT6=
EXTT7=
EXTT8=
EXTT9=
PLAYORDER=
